# xmcd CD database file
#
# Track frame offsets:
#	150
#	16772
#	35825
#	51405
#	70742
#	89715
#	103104
#	121617
#	138255
#	155200
#	174690
#	191425
#	209562
#	228167
#	245900
#	266607
#	289580
#	305460
#	320825
#
# Disc length: 4520 seconds
#
# Revision: 5
# Processed by: cddbd v1.5.2PL0 Copyright (c) Steve Scherf et al.
# Submitted via: CDex 1.51
#
DISCID=1f11a613
DTITLE=Destiny's Child - Survivor
DYEAR=2001
DGENRE=R&B
TTITLE0=Independent Women Part I
TTITLE1=Survivor
TTITLE2=Bootylicious
TTITLE3=Nasty Girl
TTITLE4=Fancy
TTITLE5=Apple Pie A La Mode
TTITLE6=Sexy Daddy
TTITLE7=Perfect Man
TTITLE8=Independent Women Part II
TTITLE9=Happy Face
TTITLE10=Dance With Me
TTITLE11=Survivor (Maurice's Radio Mix)
TTITLE12=My Heart Still Beats (Featuring Beyonce)
TTITLE13=Emotion
TTITLE14=Brown Eyes
TTITLE15=Dangerously In Love
TTITLE16=The Story Of Beauty
TTITLE17=Gospel Medley
TTITLE18=Outro (DC-3) Thank You
EXTD=YEAR: 2001
EXTT0=
EXTT1=
EXTT2=
EXTT3=
EXTT4=
EXTT5=
EXTT6=
EXTT7=
EXTT8=
EXTT9=
EXTT10=
EXTT11=
EXTT12=
EXTT13=
EXTT14=
EXTT15=
EXTT16=
EXTT17=
EXTT18=
PLAYORDER=
